<svg xmlns="http://www.w3.org/2000/svg" viewBox="0 0 960 640" role="img" aria-labelledby="title desc">
  <title id="title">Anatomia IPv6</title>
  <desc id="desc">Direccion IPv6 completa con prefijo de red e identificador de interfaz.</desc>
  <defs>
    <linearGradient id="bg" x1="0" y1="0" x2="0" y2="1">
      <stop offset="0%" stop-color="#0f172a"/>
      <stop offset="100%" stop-color="#08111d"/>
    </linearGradient>
  </defs>
  <rect width="960" height="640" rx="28" fill="url(#bg)"/>
  <text x="56" y="72" fill="#e2e8f0" font-family="Segoe UI, Arial, sans-serif" font-size="34" font-weight="700">Anatomia de una direccion IPv6</text>
  <text x="56" y="112" fill="#93a4b8" font-family="Segoe UI, Arial, sans-serif" font-size="18">128 bits, 8 hextetos, prefijo de red e identificador de interfaz</text>

  <g font-family="Consolas, Monaco, monospace" font-size="24" text-anchor="middle">
    <rect x="56" y="176" width="98" height="78" rx="16" fill="#14314a" stroke="#38bdf8"/>
    <rect x="168" y="176" width="98" height="78" rx="16" fill="#14314a" stroke="#38bdf8"/>
    <rect x="280" y="176" width="98" height="78" rx="16" fill="#14314a" stroke="#38bdf8"/>
    <rect x="392" y="176" width="98" height="78" rx="16" fill="#14314a" stroke="#38bdf8"/>
    <rect x="504" y="176" width="98" height="78" rx="16" fill="#4c3410" stroke="#f59e0b"/>
    <rect x="616" y="176" width="98" height="78" rx="16" fill="#4c3410" stroke="#f59e0b"/>
    <rect x="728" y="176" width="98" height="78" rx="16" fill="#4c3410" stroke="#f59e0b"/>
    <rect x="840" y="176" width="64" height="78" rx="16" fill="#4c3410" stroke="#f59e0b"/>
    <text x="105" y="223" fill="#f8fafc">2001</text>
    <text x="217" y="223" fill="#f8fafc">0DB8</text>
    <text x="329" y="223" fill="#f8fafc">ACAD</text>
    <text x="441" y="223" fill="#f8fafc">0001</text>
    <text x="553" y="223" fill="#f8fafc">0000</text>
    <text x="665" y="223" fill="#f8fafc">0000</text>
    <text x="777" y="223" fill="#f8fafc">00AB</text>
    <text x="872" y="223" fill="#f8fafc">10FD</text>
  </g>

  <g font-family="Segoe UI, Arial, sans-serif">
    <line x1="56" y1="294" x2="490" y2="294" stroke="#38bdf8" stroke-width="6"/>
    <line x1="504" y1="294" x2="904" y2="294" stroke="#f59e0b" stroke-width="6"/>
    <text x="272" y="332" fill="#38bdf8" font-size="24" font-weight="700" text-anchor="middle">64 bits de red</text>
    <text x="704" y="332" fill="#f59e0b" font-size="24" font-weight="700" text-anchor="middle">64 bits de interfaz</text>

    <rect x="56" y="388" width="196" height="156" rx="18" fill="#0b1220" stroke="#243244"/>
    <rect x="272" y="388" width="196" height="156" rx="18" fill="#0b1220" stroke="#243244"/>
    <rect x="488" y="388" width="196" height="156" rx="18" fill="#0b1220" stroke="#243244"/>
    <rect x="704" y="388" width="200" height="156" rx="18" fill="#0b1220" stroke="#243244"/>

    <text x="84" y="430" fill="#e2e8f0" font-size="21" font-weight="700">Dato 1</text>
    <text x="84" y="466" fill="#93a4b8" font-size="19">1 hexteto = 16 bits</text>
    <text x="84" y="500" fill="#93a4b8" font-size="19">Cada grupo tiene 4</text>
    <text x="84" y="528" fill="#93a4b8" font-size="19">simbolos hexadecimales.</text>

    <text x="300" y="430" fill="#e2e8f0" font-size="21" font-weight="700">Dato 2</text>
    <text x="300" y="466" fill="#93a4b8" font-size="19">8 hextetos = 128 bits</text>
    <text x="300" y="500" fill="#93a4b8" font-size="19">La direccion completa usa</text>
    <text x="300" y="528" fill="#93a4b8" font-size="19">32 simbolos hexadecimales.</text>

    <text x="516" y="430" fill="#e2e8f0" font-size="21" font-weight="700">Dato 3</text>
    <text x="516" y="466" fill="#93a4b8" font-size="19">/64 divide la direccion</text>
    <text x="516" y="500" fill="#93a4b8" font-size="19">en 64 bits de red y</text>
    <text x="516" y="528" fill="#93a4b8" font-size="19">64 bits de interfaz.</text>

    <text x="732" y="430" fill="#e2e8f0" font-size="21" font-weight="700">Dato 4</text>
    <text x="732" y="466" fill="#93a4b8" font-size="19">Los grupos se separan</text>
    <text x="732" y="500" fill="#93a4b8" font-size="19">con dos puntos y el</text>
    <text x="732" y="528" fill="#93a4b8" font-size="19">prefijo se expresa con /n.</text>
  </g>
</svg>
