<svg xmlns="http://www.w3.org/2000/svg" viewBox="0 0 960 600" role="img" aria-labelledby="title desc">
  <title id="title">IPv6 anatomy</title>
  <desc id="desc">Address anatomy showing 8 hextets with prefix and interface identifier.</desc>
  <defs>
    <linearGradient id="bg" x1="0" y1="0" x2="0" y2="1">
      <stop offset="0%" stop-color="#0f172a"/>
      <stop offset="100%" stop-color="#08111d"/>
    </linearGradient>
  </defs>
  <rect width="960" height="600" rx="28" fill="url(#bg)"/>
  <text x="56" y="72" fill="#e2e8f0" font-family="Segoe UI, Arial, sans-serif" font-size="34" font-weight="700">IPv6 address anatomy</text>
  <text x="56" y="112" fill="#93a4b8" font-family="Segoe UI, Arial, sans-serif" font-size="18">128 bits, 8 hextets, prefix and interface identifier</text>

  <g font-family="Consolas, Monaco, monospace" font-size="24" text-anchor="middle">
    <rect x="56" y="176" width="98" height="78" rx="16" fill="#14314a" stroke="#38bdf8"/>
    <rect x="168" y="176" width="98" height="78" rx="16" fill="#14314a" stroke="#38bdf8"/>
    <rect x="280" y="176" width="98" height="78" rx="16" fill="#14314a" stroke="#38bdf8"/>
    <rect x="392" y="176" width="98" height="78" rx="16" fill="#14314a" stroke="#38bdf8"/>
    <rect x="504" y="176" width="98" height="78" rx="16" fill="#4c3410" stroke="#f59e0b"/>
    <rect x="616" y="176" width="98" height="78" rx="16" fill="#4c3410" stroke="#f59e0b"/>
    <rect x="728" y="176" width="98" height="78" rx="16" fill="#4c3410" stroke="#f59e0b"/>
    <rect x="840" y="176" width="64" height="78" rx="16" fill="#4c3410" stroke="#f59e0b"/>
    <text x="105" y="223" fill="#f8fafc">2001</text>
    <text x="217" y="223" fill="#f8fafc">0DB8</text>
    <text x="329" y="223" fill="#f8fafc">ACAD</text>
    <text x="441" y="223" fill="#f8fafc">0001</text>
    <text x="553" y="223" fill="#f8fafc">0000</text>
    <text x="665" y="223" fill="#f8fafc">0000</text>
    <text x="777" y="223" fill="#f8fafc">00AB</text>
    <text x="872" y="223" fill="#f8fafc">10FD</text>
  </g>

  <g font-family="Segoe UI, Arial, sans-serif">
    <line x1="56" y1="294" x2="490" y2="294" stroke="#38bdf8" stroke-width="6"/>
    <line x1="504" y1="294" x2="904" y2="294" stroke="#f59e0b" stroke-width="6"/>
    <text x="272" y="332" fill="#38bdf8" font-size="24" font-weight="700" text-anchor="middle">64-bit network prefix</text>
    <text x="704" y="332" fill="#f59e0b" font-size="24" font-weight="700" text-anchor="middle">64-bit interface ID</text>

    <rect x="56" y="392" width="848" height="142" rx="18" fill="#0b1220" stroke="#243244"/>
    <text x="88" y="432" fill="#e2e8f0" font-size="22" font-weight="700">What to remember</text>
    <text x="88" y="468" fill="#93a4b8" font-size="20">1 hextet = 16 bits</text>
    <text x="88" y="500" fill="#93a4b8" font-size="20">8 hextets = 128 bits</text>
    <text x="470" y="468" fill="#93a4b8" font-size="20">A /64 split is the common LAN design</text>
    <text x="470" y="500" fill="#93a4b8" font-size="20">IPv6 uses colon-separated hexadecimal groups</text>
  </g>
</svg>
