<svg xmlns="http://www.w3.org/2000/svg" viewBox="0 0 960 640" role="img" aria-labelledby="title desc">
  <title id="title">Secuencia minima Cisco IOS IPv6</title>
  <desc id="desc">Secuencia minima de comandos Cisco IOS para habilitar IPv6 con enfasis en ipv6 unicast-routing.</desc>
  <rect width="960" height="640" rx="28" fill="#0a1220"/>
  <text x="56" y="72" fill="#f8fafc" font-family="Segoe UI, Arial, sans-serif" font-size="34" font-weight="700">Secuencia minima Cisco IOS para IPv6</text>
  <text x="56" y="112" fill="#94a3b8" font-family="Segoe UI, Arial, sans-serif" font-size="18">El paso critico se resalta en azul para fijarlo visualmente</text>

  <rect x="56" y="154" width="848" height="396" rx="22" fill="#050b14" stroke="#1f2a3d"/>
  <rect x="56" y="154" width="848" height="46" rx="22" fill="#0f172a"/>
  <circle cx="88" cy="177" r="8" fill="#ff5f56"/>
  <circle cx="114" cy="177" r="8" fill="#ffbd2e"/>
  <circle cx="140" cy="177" r="8" fill="#27c93f"/>
  <text x="180" y="183" fill="#93c5fd" font-family="Segoe UI, Arial, sans-serif" font-size="16" font-weight="700">Cisco IOS</text>

  <g font-family="Consolas, Monaco, monospace" font-size="24">
    <text x="88" y="252" fill="#7ee787">R1&gt;</text>
    <text x="160" y="252" fill="#dbeafe">enable</text>
    <text x="88" y="296" fill="#7ee787">R1#</text>
    <text x="144" y="296" fill="#dbeafe">configure terminal</text>
    <text x="88" y="340" fill="#7ee787">R1(config)#</text>
    <text x="254" y="340" fill="#7dd3fc">ipv6 unicast-routing</text>
    <text x="88" y="384" fill="#7ee787">R1(config)#</text>
    <text x="254" y="384" fill="#dbeafe">interface g0/0</text>
    <text x="88" y="428" fill="#7ee787">R1(config-if)#</text>
    <text x="304" y="428" fill="#dbeafe">ipv6 address 2001:DB8:1::1/64</text>
    <text x="88" y="472" fill="#7ee787">R1(config-if)#</text>
    <text x="304" y="472" fill="#dbeafe">no shutdown</text>
  </g>

  <rect x="596" y="246" width="270" height="144" rx="18" fill="#102341" stroke="#60a5fa"/>
  <text x="624" y="286" fill="#f8fafc" font-family="Segoe UI, Arial, sans-serif" font-size="20" font-weight="700">Paso critico</text>
  <text x="624" y="322" fill="#cbd5e1" font-family="Segoe UI, Arial, sans-serif" font-size="18">Sin ipv6 unicast-routing</text>
  <text x="624" y="352" fill="#cbd5e1" font-family="Segoe UI, Arial, sans-serif" font-size="18">el router no reenviara</text>
  <text x="624" y="382" fill="#cbd5e1" font-family="Segoe UI, Arial, sans-serif" font-size="18">trafico IPv6 como esperas.</text>
</svg>
