<svg xmlns="http://www.w3.org/2000/svg" viewBox="0 0 960 720" role="img" aria-labelledby="title desc">
  <title id="title">Mapa visual de tipos IPv6</title>
  <desc id="desc">Mapa de los principales tipos de direcciones IPv6 y sus usos.</desc>
  <rect width="960" height="720" rx="28" fill="#0b1220"/>
  <text x="56" y="72" fill="#f8fafc" font-family="Segoe UI, Arial, sans-serif" font-size="34" font-weight="700">Mapa visual de tipos IPv6</text>
  <text x="56" y="112" fill="#94a3b8" font-family="Segoe UI, Arial, sans-serif" font-size="18">Clasificacion rapida para estudiar alcance, prefijo y uso principal</text>

  <g font-family="Segoe UI, Arial, sans-serif">
    <rect x="56" y="160" width="260" height="118" rx="18" fill="#0f2f46" stroke="#38bdf8"/>
    <text x="84" y="202" fill="#f8fafc" font-size="24" font-weight="700">GUA</text>
    <text x="84" y="234" fill="#7dd3fc" font-size="20">2000::/3</text>
    <text x="84" y="264" fill="#cbd5e1" font-size="18">Publica y enrutable</text>

    <rect x="350" y="160" width="260" height="118" rx="18" fill="#123220" stroke="#4ade80"/>
    <text x="378" y="202" fill="#f8fafc" font-size="24" font-weight="700">LLA</text>
    <text x="378" y="234" fill="#86efac" font-size="20">FE80::/10</text>
    <text x="378" y="264" fill="#cbd5e1" font-size="18">Solo mismo enlace</text>

    <rect x="644" y="160" width="260" height="118" rx="18" fill="#422d12" stroke="#fbbf24"/>
    <text x="672" y="202" fill="#f8fafc" font-size="24" font-weight="700">ULA</text>
    <text x="672" y="234" fill="#fcd34d" font-size="20">FC00::/7</text>
    <text x="672" y="264" fill="#cbd5e1" font-size="18">Uso local privado</text>

    <rect x="56" y="306" width="260" height="106" rx="18" fill="#38171d" stroke="#fb7185"/>
    <text x="84" y="348" fill="#f8fafc" font-size="24" font-weight="700">Bucle local</text>
    <text x="84" y="382" fill="#fda4af" font-size="20">::1/128</text>

    <rect x="350" y="306" width="260" height="106" rx="18" fill="#1f2430" stroke="#94a3b8"/>
    <text x="378" y="348" fill="#f8fafc" font-size="24" font-weight="700">No especificada</text>
    <text x="378" y="382" fill="#cbd5e1" font-size="20">::</text>

    <rect x="644" y="306" width="260" height="106" rx="18" fill="#1f1d44" stroke="#a78bfa"/>
    <text x="672" y="348" fill="#f8fafc" font-size="24" font-weight="700">Multicast</text>
    <text x="672" y="382" fill="#c4b5fd" font-size="20">FF00::/12</text>

    <rect x="56" y="446" width="410" height="188" rx="18" fill="#0f172a" stroke="#334155"/>
    <text x="84" y="488" fill="#f8fafc" font-size="24" font-weight="700">Grupos que conviene memorizar</text>
    <text x="84" y="526" fill="#cbd5e1" font-size="18">FF02::1  todos los nodos</text>
    <text x="84" y="558" fill="#cbd5e1" font-size="18">FF02::2  todos los routers</text>
    <text x="84" y="590" fill="#cbd5e1" font-size="18">FF02::5  routers OSPFv3</text>
    <text x="84" y="622" fill="#cbd5e1" font-size="18">FF02::A  routers EIGRP para IPv6</text>

    <rect x="494" y="446" width="410" height="188" rx="18" fill="#101b2f" stroke="#60a5fa"/>
    <text x="522" y="488" fill="#f8fafc" font-size="24" font-weight="700">Anycast</text>
    <text x="522" y="526" fill="#cbd5e1" font-size="18">Usa el mismo rango de unicast.</text>
    <text x="522" y="558" fill="#cbd5e1" font-size="18">Varios nodos anuncian la misma direccion.</text>
    <text x="522" y="590" fill="#cbd5e1" font-size="18">El trafico llega al nodo mas cercano.</text>
  </g>
</svg>
