<svg xmlns="http://www.w3.org/2000/svg" viewBox="0 0 960 600" role="img" aria-labelledby="title desc">
  <title id="title">IPv6 type map</title>
  <desc id="desc">Type map of the main IPv6 address families and prefixes.</desc>
  <rect width="960" height="600" rx="28" fill="#0b1220"/>
  <text x="56" y="72" fill="#f8fafc" font-family="Segoe UI, Arial, sans-serif" font-size="34" font-weight="700">IPv6 type map</text>
  <text x="56" y="112" fill="#94a3b8" font-family="Segoe UI, Arial, sans-serif" font-size="18">Quick visual classification of the main address families</text>

  <g font-family="Segoe UI, Arial, sans-serif">
    <rect x="56" y="160" width="260" height="120" rx="18" fill="#0f2f46" stroke="#38bdf8"/>
    <text x="84" y="204" fill="#f8fafc" font-size="24" font-weight="700">GUA</text>
    <text x="84" y="236" fill="#7dd3fc" font-size="20">2000::/3</text>
    <text x="84" y="266" fill="#cbd5e1" font-size="18">Global and routable</text>

    <rect x="350" y="160" width="260" height="120" rx="18" fill="#123220" stroke="#4ade80"/>
    <text x="378" y="204" fill="#f8fafc" font-size="24" font-weight="700">LLA</text>
    <text x="378" y="236" fill="#86efac" font-size="20">FE80::/10</text>
    <text x="378" y="266" fill="#cbd5e1" font-size="18">Same link only</text>

    <rect x="644" y="160" width="260" height="120" rx="18" fill="#422d12" stroke="#fbbf24"/>
    <text x="672" y="204" fill="#f8fafc" font-size="24" font-weight="700">ULA</text>
    <text x="672" y="236" fill="#fcd34d" font-size="20">FC00::/7</text>
    <text x="672" y="266" fill="#cbd5e1" font-size="18">Private local scope</text>

    <rect x="56" y="314" width="260" height="100" rx="18" fill="#38171d" stroke="#fb7185"/>
    <text x="84" y="354" fill="#f8fafc" font-size="24" font-weight="700">Loopback</text>
    <text x="84" y="388" fill="#fda4af" font-size="20">::1/128</text>

    <rect x="350" y="314" width="260" height="100" rx="18" fill="#1f2430" stroke="#94a3b8"/>
    <text x="378" y="354" fill="#f8fafc" font-size="24" font-weight="700">Unspecified</text>
    <text x="378" y="388" fill="#cbd5e1" font-size="20">::</text>

    <rect x="644" y="314" width="260" height="100" rx="18" fill="#1f1d44" stroke="#a78bfa"/>
    <text x="672" y="354" fill="#f8fafc" font-size="24" font-weight="700">Multicast</text>
    <text x="672" y="388" fill="#c4b5fd" font-size="20">FF00::/12</text>

    <rect x="56" y="448" width="410" height="96" rx="18" fill="#0f172a" stroke="#334155"/>
    <text x="84" y="488" fill="#f8fafc" font-size="24" font-weight="700">Known groups</text>
    <text x="84" y="522" fill="#cbd5e1" font-size="18">FF02::1 all-nodes, FF02::2 all-routers, FF02::5 OSPFv3, FF02::A EIGRPv6</text>

    <rect x="494" y="448" width="410" height="96" rx="18" fill="#101b2f" stroke="#60a5fa"/>
    <text x="522" y="488" fill="#f8fafc" font-size="24" font-weight="700">Anycast</text>
    <text x="522" y="522" fill="#cbd5e1" font-size="18">Same unicast address on multiple nodes, traffic reaches the nearest one</text>
  </g>
</svg>
